<?xml version="1.0" standalone="no"?><!DOCTYPE svg PUBLIC "-//W3C//DTD SVG 1.1//EN" "http://www.w3.org/Graphics/SVG/1.1/DTD/svg11.dtd"><svg t="1506396998340" class="icon" style="" viewBox="0 0 1024 1024" version="1.1" xmlns="http://www.w3.org/2000/svg" p-id="1106" xmlns:xlink="http://www.w3.org/1999/xlink" width="48" height="48"><defs><style type="text/css"></style></defs><path d="M633.20064 532.35712c55.68512-38.52288 92.22144-102.74816 92.22144-175.57504C725.42208 238.91968 629.8624 143.36 512 143.36c-117.8624 0-213.42208 95.55968-213.42208 213.42208 0 72.82688 36.53632 137.05216 92.22144 175.57504-121.7536 45.32224-208.62976 162.24256-208.62976 299.78624L182.1696 880.64l58.42944 0 0-48.49664c0-144.65024 117.26848-261.91872 261.91872-261.91872l19.16928 0c144.65024 0 261.91872 117.26848 261.91872 261.91872L783.60576 880.64l58.20416 0 0-48.49664C841.8304 694.59968 754.93376 577.67936 633.20064 532.35712zM512 512c-85.72928 0-155.21792-69.48864-155.21792-155.21792 0-85.72928 69.48864-155.21792 155.21792-155.21792 85.72928 0 155.21792 69.48864 155.21792 155.21792C667.21792 442.51136 597.72928 512 512 512z" p-id="1107"></path></svg>